<svg xmlns='http://www.w3.org/2000/svg' width='512' height='512' viewBox='0 0 512 512'>
  <rect width='512' height='512' fill='none'/>
  <g fill='white'>
<circle cx="305.21" cy="478.97" r="1.42" fill="white" opacity="0.76"/>
<circle cx="61.06" cy="239.28" r="1.21" fill="white" opacity="0.94"/>
<circle cx="432.48" cy="12.29" r="0.47" fill="white" opacity="0.99"/>
<circle cx="404.80" cy="382.87" r="0.37" fill="white" opacity="0.88"/>
<circle cx="267.35" cy="220.30" r="1.46" fill="white" opacity="0.92"/>
<circle cx="413.46" cy="377.95" r="0.99" fill="white" opacity="0.62"/>
<circle cx="275.12" cy="434.05" r="1.32" fill="white" opacity="0.80"/>
<circle cx="421.82" cy="231.87" r="0.26" fill="white" opacity="0.71"/>
<circle cx="468.67" cy="326.65" r="1.12" fill="white" opacity="0.67"/>
<circle cx="506.22" cy="491.90" r="1.21" fill="white" opacity="0.98"/>
<circle cx="143.58" cy="364.22" r="0.28" fill="white" opacity="0.76"/>
<circle cx="467.73" cy="45.62" r="0.64" fill="white" opacity="0.62"/>
<circle cx="91.60" cy="21.88" r="0.73" fill="white" opacity="0.83"/>
<circle cx="370.23" cy="126.94" r="0.34" fill="white" opacity="0.63"/>
<circle cx="305.37" cy="259.58" r="1.19" fill="white" opacity="0.89"/>
<circle cx="318.26" cy="456.31" r="0.83" fill="white" opacity="0.91"/>
<circle cx="446.18" cy="152.15" r="0.40" fill="white" opacity="0.79"/>
<circle cx="391.56" cy="431.45" r="1.37" fill="white" opacity="0.76"/>
<circle cx="333.82" cy="138.62" r="0.37" fill="white" opacity="0.88"/>
<circle cx="18.14" cy="146.03" r="0.44" fill="white" opacity="0.54"/>
<circle cx="88.47" cy="4.51" r="0.55" fill="white" opacity="0.83"/>
<circle cx="76.50" cy="239.66" r="0.14" fill="white" opacity="0.57"/>
<circle cx="395.23" cy="391.31" r="1.41" fill="white" opacity="0.90"/>
<circle cx="127.48" cy="50.59" r="1.16" fill="white" opacity="0.91"/>
<circle cx="243.07" cy="432.30" r="1.42" fill="white" opacity="0.70"/>
<circle cx="144.44" cy="327.42" r="0.65" fill="white" opacity="0.71"/>
<circle cx="479.16" cy="74.73" r="1.15" fill="white" opacity="0.77"/>
<circle cx="287.45" cy="99.96" r="1.20" fill="white" opacity="0.64"/>
<circle cx="360.47" cy="207.76" r="0.71" fill="white" opacity="0.93"/>
<circle cx="32.77" cy="275.39" r="1.05" fill="white" opacity="0.51"/>
<circle cx="107.19" cy="411.48" r="0.50" fill="white" opacity="0.67"/>
<circle cx="423.63" cy="75.27" r="0.26" fill="white" opacity="0.88"/>
<circle cx="94.35" cy="55.92" r="0.14" fill="white" opacity="0.80"/>
<circle cx="180.18" cy="21.50" r="1.49" fill="white" opacity="0.56"/>
<circle cx="436.27" cy="160.13" r="1.34" fill="white" opacity="0.53"/>
<circle cx="419.57" cy="4.33" r="1.29" fill="white" opacity="0.88"/>
<circle cx="408.81" cy="343.60" r="1.25" fill="white" opacity="0.54"/>
<circle cx="168.71" cy="288.37" r="0.58" fill="white" opacity="0.87"/>
<circle cx="80.85" cy="184.67" r="0.31" fill="white" opacity="0.98"/>
<circle cx="143.46" cy="483.89" r="0.23" fill="white" opacity="0.83"/>
<circle cx="366.38" cy="28.25" r="0.21" fill="white" opacity="0.91"/>
<circle cx="11.88" cy="72.11" r="1.16" fill="white" opacity="0.71"/>
<circle cx="443.62" cy="503.02" r="1.45" fill="white" opacity="0.85"/>
<circle cx="450.30" cy="178.67" r="1.16" fill="white" opacity="0.80"/>
<circle cx="48.17" cy="139.65" r="0.92" fill="white" opacity="0.66"/>
<circle cx="454.35" cy="313.26" r="0.60" fill="white" opacity="1.00"/>
<circle cx="73.97" cy="103.36" r="0.52" fill="white" opacity="0.56"/>
<circle cx="62.74" cy="89.78" r="0.52" fill="white" opacity="0.91"/>
<circle cx="54.49" cy="58.48" r="1.45" fill="white" opacity="0.82"/>
<circle cx="188.33" cy="483.28" r="1.48" fill="white" opacity="0.56"/>
<circle cx="472.83" cy="472.14" r="1.24" fill="white" opacity="0.82"/>
<circle cx="402.14" cy="333.66" r="1.46" fill="white" opacity="0.59"/>
<circle cx="359.57" cy="429.57" r="1.04" fill="white" opacity="1.00"/>
<circle cx="50.12" cy="76.43" r="1.06" fill="white" opacity="0.80"/>
<circle cx="227.19" cy="250.98" r="0.65" fill="white" opacity="0.85"/>
<circle cx="191.52" cy="378.84" r="0.23" fill="white" opacity="0.64"/>
<circle cx="347.05" cy="428.60" r="0.50" fill="white" opacity="0.63"/>
<circle cx="344.36" cy="453.51" r="0.89" fill="white" opacity="0.66"/>
<circle cx="292.49" cy="108.84" r="0.35" fill="white" opacity="0.74"/>
<circle cx="239.95" cy="9.89" r="0.43" fill="white" opacity="0.66"/>
<circle cx="510.74" cy="50.64" r="1.32" fill="white" opacity="0.91"/>
<circle cx="36.63" cy="72.25" r="0.50" fill="white" opacity="0.67"/>
<circle cx="67.44" cy="118.15" r="0.76" fill="white" opacity="0.54"/>
<circle cx="455.46" cy="164.62" r="0.16" fill="white" opacity="0.61"/>
<circle cx="443.73" cy="323.06" r="0.34" fill="white" opacity="0.59"/>
<circle cx="154.05" cy="420.28" r="1.39" fill="white" opacity="0.95"/>
<circle cx="127.63" cy="260.53" r="1.08" fill="white" opacity="0.96"/>
<circle cx="467.89" cy="388.50" r="1.06" fill="white" opacity="0.94"/>
<circle cx="254.42" cy="486.32" r="1.11" fill="white" opacity="0.72"/>
<circle cx="26.07" cy="67.77" r="0.77" fill="white" opacity="0.87"/>
<circle cx="203.04" cy="295.35" r="1.43" fill="white" opacity="0.71"/>
<circle cx="368.34" cy="425.75" r="0.36" fill="white" opacity="0.89"/>
<circle cx="341.66" cy="319.56" r="0.52" fill="white" opacity="0.94"/>
<circle cx="376.31" cy="47.82" r="0.26" fill="white" opacity="0.96"/>
<circle cx="23.02" cy="79.28" r="0.67" fill="white" opacity="0.62"/>
<circle cx="7.77" cy="420.25" r="0.98" fill="white" opacity="0.51"/>
<circle cx="251.25" cy="498.20" r="0.48" fill="white" opacity="0.86"/>
<circle cx="449.82" cy="470.03" r="1.19" fill="white" opacity="0.63"/>
<circle cx="231.58" cy="400.09" r="1.20" fill="white" opacity="0.62"/>
<circle cx="115.78" cy="129.81" r="1.06" fill="white" opacity="0.89"/>
  </g>
</svg>
